<svg xmlns="http://www.w3.org/2000/svg" width="40" height="40" viewBox="0 0 40 40">
  <g fill="none" fill-rule="evenodd" transform="matrix(1 0 0 -1 1 34)">
    <path fill="#E22900" d="M11.3633333,26.7866667 C11.3356262,26.7376692 11.3109503,26.6870186 11.2894444,26.635 C11.1402806,26.2899132 11.094353,25.9089844 11.1572222,25.5383333 L4.05176187,25.5383333 C3.49947712,25.5383333 3.05176187,25.090618 3.05176187,24.5383333 C3.05176187,24.3651195 3.09675399,24.194876 3.18233106,24.0442786 L14.577701,3.99086068 C14.8505599,3.5106873 15.4610132,3.3426257 15.9411866,3.61548459 C16.0977098,3.70442904 16.227319,3.83397863 16.3163354,3.99046096 L19.7516667,10.0294444 L19.7516667,10.0294444 L21,7.82055556 L17.2472222,1.20944444 C17.1422222,1.01888889 16.5083333,0 15.4155556,0 C14.9216667,0 14.2138889,0.21388889 13.6383333,1.225 L0.35388889,24.5816667 C0.24111111,24.7838889 -0.30722222,25.8455556 0.23722222,26.7866667 C0.48611112,27.2144444 1.015,27.7238889 2.18166667,27.7238889 L13.3077778,27.7238889 C12.1488889,27.7238889 11.6122222,27.2222222 11.3633333,26.7866667 Z"/>
    <path fill="#FFC108" d="M36.9444444,24.5816667 L26.0283333,5.35111111 C25.9155556,5.14888889 25.2855556,4.12611111 24.1888889,4.12611111 C23.695,4.12611111 22.9872222,4.33611111 22.4116667,5.34722222 L21,7.82055556 L22.2561111,10.0294444 L23.3336588,8.12218497 C23.6053251,7.64133581 24.2153593,7.47175951 24.6962085,7.74342572 C24.8534589,7.83226776 24.9837127,7.96203938 25.0731373,8.11895919 L34.1479682,24.0432123 C34.421416,24.5230506 34.2541034,25.1337096 33.7742651,25.4071574 C33.6234115,25.493125 33.4527738,25.5383333 33.2791442,25.5383333 L30.8933333,25.5383333 L30.8933333,25.5383333 C30.9458825,25.8516129 30.9164072,26.1731618 30.8077778,26.4716667 C30.7848999,26.5375702 30.7562711,26.6013343 30.7222222,26.6622222 L30.6872222,26.7322222 C30.135,27.6733333 28.9411111,27.7238889 28.7077778,27.7238889 L35.1322222,27.7238889 C35.3694444,27.7238889 36.5594444,27.6733333 37.1116667,26.7322222 C37.3566667,26.3044444 37.5316667,25.585 36.9444444,24.5816667 Z"/>
    <path fill="#FFA100" d="M30.7222222,26.6622222 C30.7562711,26.6013343 30.7848999,26.5375702 30.8077778,26.4716667 C30.9164072,26.1731618 30.9458825,25.8516129 30.8933333,25.5383333 C30.8328086,25.2004596 30.7115933,24.8763404 30.5355556,24.5816667 L22.2638889,10.0294444 L21,7.82055556 L19.7438889,10.0294444 L11.4761111,24.5816667 C11.3155825,24.8798409 11.2077039,25.2034768 11.1572222,25.5383333 C11.0906817,25.9078613 11.1325526,26.2887513 11.2777778,26.635 C11.2992836,26.6870186 11.3239595,26.7376693 11.3516667,26.7866667 C11.6005556,27.2144444 12.1294444,27.7238889 13.2961111,27.7238889 L28.6961111,27.7238889 C28.9411111,27.7238889 30.135,27.6733333 30.6872222,26.7322222 L30.7222222,26.6622222 Z M21.8695909,13.7681691 L27.7106842,24.0441667 C27.9836049,24.5243049 27.8156219,25.1347798 27.3354836,25.4077005 C27.1848594,25.4933185 27.0145744,25.5383333 26.841317,25.5383333 L15.162135,25.5383333 C14.6098503,25.5383333 14.162135,25.090618 14.162135,24.5383333 C14.162135,24.3651508 14.2071109,24.1949369 14.2926586,24.0443588 L20.1307473,13.7683613 C20.4035618,13.2881627 21.0139996,13.1200448 21.4941981,13.3928593 C21.6508545,13.4818603 21.7805553,13.6115324 21.8695909,13.7681691 Z"/>
  </g>
</svg>
