<svg xmlns="http://www.w3.org/2000/svg" width="181" height="83"><g fill="none"><path fill="#F37920" d="M58.753 61.964h-3.621l-.186-.659 7.986-9.034h.372v5.976h6.036c.123.535.185 1.13.185 1.79a9.973 9.973 0 0 1-.185 1.928l-6.036-.001v11.012c0 1.316.054 2.37.162 3.152.106.785.293 1.388.556 1.811.264.422.617.706 1.068.847.448.143 1.014.214 1.693.214a8.84 8.84 0 0 0 1.486-.118 14.77 14.77 0 0 0 1.253-.26c.217.629.348 1.272.397 1.93.044.66.066 1.238.066 1.74-.617.157-1.269.274-1.949.353a19.34 19.34 0 0 1-2.182.116c-2.228 0-3.97-.549-5.222-1.646-1.253-1.098-1.88-2.918-1.88-5.46V61.964h.001zm23.122 20.989c-1.858 0-3.482-.324-4.874-.966-1.394-.642-2.555-1.528-3.484-2.659-.927-1.128-1.616-2.462-2.065-3.998-.448-1.54-.673-3.2-.673-4.99 0-1.789.225-3.45.673-4.987.449-1.537 1.138-2.87 2.065-3.998.93-1.13 2.09-2.025 3.484-2.687 1.392-.658 3.016-.985 4.874-.985 1.858 0 3.483.328 4.875.985 1.393.662 2.555 1.555 3.484 2.687.927 1.128 1.615 2.46 2.064 3.998.448 1.538.672 3.198.672 4.988 0 1.79-.224 3.45-.672 4.989-.45 1.536-1.137 2.87-2.064 3.998-.93 1.13-2.09 2.017-3.484 2.66-1.392.641-3.017.965-4.875.965m0-3.72c2.135 0 3.715-.782 4.735-2.35 1.02-1.57 1.533-3.75 1.533-6.544 0-2.793-.513-4.965-1.533-6.516-1.02-1.553-2.6-2.33-4.735-2.33-2.136 0-3.707.777-4.712 2.33-1.006 1.551-1.507 3.723-1.507 6.516s.501 4.973 1.507 6.544c1.005 1.57 2.576 2.35 4.712 2.35m13.65-20.985c.341-.064.727-.11 1.161-.143.433-.03.803-.045 1.114-.045.34 0 .727.017 1.161.045.433.032.818.08 1.16.143v13.224c0 1.504.14 2.751.417 3.738.281.988.699 1.765 1.254 2.332a4.455 4.455 0 0 0 2.043 1.173c.806.218 1.735.33 2.785.33 1.579 0 2.927-.17 4.04-.518V58.248c.342-.064.722-.11 1.138-.143.419-.03.795-.045 1.138-.045.342 0 .721.017 1.137.045.417.032.795.08 1.138.143v23.384c-1.083.317-2.377.613-3.876.897a25.331 25.331 0 0 1-4.666.422 22.03 22.03 0 0 1-4.294-.4c-1.346-.268-2.53-.807-3.553-1.623-1.02-.815-1.826-1.961-2.414-3.435-.589-1.475-.882-3.42-.882-5.838V58.248h-.001zm23.722 0a9.95 9.95 0 0 1 1.95-.188c.344 0 .68.017 1.024.045.34.032.65.08.927.143.093.47.187 1.091.281 1.86.093.767.14 1.419.14 1.95a9.662 9.662 0 0 1 2.576-2.775c1.068-.783 2.436-1.176 4.107-1.176.249 0 .504.009.768.024.262.017.487.04.67.07.062.284.109.583.142.896a10.274 10.274 0 0 1-.024 2.162c-.046.41-.099.799-.163 1.177a3.073 3.073 0 0 0-.766-.094h-.627c-.835 0-1.632.117-2.39.352-.76.234-1.44.651-2.044 1.244-.602.599-1.084 1.414-1.439 2.449-.353 1.035-.534 2.37-.534 4v11.998c-.34.064-.72.11-1.135.143-.418.03-.797.045-1.139.045-.341 0-.72-.016-1.138-.045a12.743 12.743 0 0 1-1.183-.143V58.248h-.003zm14.997 19.764c.836.346 1.756.62 2.764.823 1.006.205 2.002.305 2.995.305a8.72 8.72 0 0 0 2.043-.234c.648-.158 1.214-.392 1.694-.706.48-.314.866-.7 1.16-1.153.294-.456.44-.964.44-1.53 0-.627-.114-1.145-.347-1.552a3.253 3.253 0 0 0-.927-1.035 6.03 6.03 0 0 0-1.346-.73c-.51-.203-1.061-.4-1.649-.587L139.45 71c-1.984-.752-3.423-1.6-4.32-2.541-.897-.94-1.347-2.212-1.347-3.81 0-2.134.75-3.828 2.25-5.085 1.501-1.254 3.706-1.882 6.616-1.882 1.208 0 2.392.118 3.552.354 1.163.235 2.174.508 3.042.822-.062.627-.18 1.254-.348 1.882-.168.629-.38 1.207-.627 1.741a24.418 24.418 0 0 0-2.437-.73 12.551 12.551 0 0 0-3.042-.352c-1.145 0-2.159.207-3.04.613-.882.407-1.322 1.13-1.322 2.163 0 .536.106.988.323 1.365.217.376.51.7.882.964.372.268.797.494 1.276.684.48.187.999.377 1.558.565l2.041.704c.744.252 1.447.551 2.113.894a6.283 6.283 0 0 1 1.718 1.296c.48.518.865 1.146 1.163 1.883.293.736.44 1.622.44 2.657 0 1.161-.23 2.22-.697 3.176a6.994 6.994 0 0 1-1.973 2.448c-.851.672-1.88 1.198-3.087 1.576-1.207.376-2.538.564-3.992.564-1.486 0-2.785-.1-3.901-.305a19.613 19.613 0 0 1-3.11-.824 9.496 9.496 0 0 1 .394-1.907c.198-.64.422-1.276.67-1.903"/><path fill="#223982" d="M40.381 8.233c.842-.168 2.019-.3 3.532-.402a68.489 68.489 0 0 1 4.592-.152c1.918 0 3.667.169 5.248.503 1.579.333 2.934.875 4.062 1.63 1.125.753 2 1.72 2.623 2.908.624 1.187.935 2.633.935 4.338 0 1.037-.16 1.997-.48 2.882a8.365 8.365 0 0 1-1.287 2.358 7.46 7.46 0 0 1-1.865 1.704 7.782 7.782 0 0 1-2.17.98c.94.1 1.89.351 2.85.754a8.47 8.47 0 0 1 2.598 1.703c.774.737 1.406 1.663 1.893 2.783.486 1.12.73 2.482.73 4.088 0 1.938-.387 3.584-1.16 4.938a9.26 9.26 0 0 1-3.154 3.284c-1.33.835-2.893 1.438-4.691 1.805-1.802.367-3.727.55-5.78.55-1.28 0-2.675-.058-4.188-.174a95.22 95.22 0 0 1-4.29-.426V8.233h.002zm8.78 15.042c2.288 0 4.037-.492 5.248-1.48 1.211-.983 1.817-2.466 1.817-4.438 0-1.903-.65-3.326-1.943-4.26-1.296-.936-3.054-1.406-5.274-1.406-.671 0-1.321.018-1.942.05a16.3 16.3 0 0 0-1.589.152v11.382h3.684zm-3.683 17.05c.472.067 1.067.117 1.791.15.724.034 1.438.05 2.145.05a18.17 18.17 0 0 0 3.404-.3c1.06-.2 1.993-.542 2.802-1.028a5.361 5.361 0 0 0 1.917-1.956c.472-.818.71-1.863.71-3.133 0-1.237-.222-2.281-.658-3.134a5.48 5.48 0 0 0-1.793-2.056c-.755-.517-1.659-.884-2.7-1.105a16.572 16.572 0 0 0-3.38-.324h-4.238v12.836zm21.04-21.763c.37-.065.791-.117 1.262-.15.472-.032.876-.05 1.211-.05.369 0 .791.018 1.261.05.473.033.891.083 1.263.15v14.092c0 1.604.152 2.93.454 3.984.302 1.055.758 1.88 1.362 2.484a4.872 4.872 0 0 0 2.22 1.253c.873.234 1.882.35 3.027.35 1.715 0 3.18-.184 4.391-.55V18.562a12.28 12.28 0 0 1 1.236-.15c.453-.032.865-.05 1.234-.05.37 0 .783.018 1.237.05.455.033.865.083 1.235.15v24.922c-1.178.334-2.582.651-4.213.953-1.632.3-3.321.45-5.07.45a24.45 24.45 0 0 1-4.667-.426c-1.465-.282-2.75-.859-3.862-1.728-1.11-.869-1.985-2.088-2.624-3.662-.64-1.57-.96-3.64-.96-6.217V18.562h.004zm27.903 3.91h-4.238c-.135-.534-.203-1.185-.203-1.955 0-.735.068-1.387.203-1.956h4.238v-1.556c0-3.174.791-5.59 2.373-7.245 1.581-1.654 3.87-2.482 6.862-2.482.876 0 1.682.06 2.422.176a16.21 16.21 0 0 1 1.97.425c-.101.87-.271 1.614-.505 2.232a24.329 24.329 0 0 1-.757 1.782 8.612 8.612 0 0 0-1.11-.277 8.456 8.456 0 0 0-1.563-.126c-.706 0-1.354.073-1.941.224a3.082 3.082 0 0 0-1.488.854c-.407.418-.716.994-.933 1.73-.22.735-.331 1.688-.331 2.857v1.404h10.9v-1.805c0-3.173.8-5.591 2.4-7.244 1.596-1.656 3.924-2.482 6.986-2.482.84 0 1.581.04 2.219.124.639.084 1.246.21 1.817.375a19.334 19.334 0 0 1-.278 2.159 16.979 16.979 0 0 1-.48 1.855c-.341-.067-.734-.14-1.191-.225a9.334 9.334 0 0 0-1.638-.125 8.15 8.15 0 0 0-1.994.225 3.255 3.255 0 0 0-1.514.853c-.42.418-.748 1.003-.982 1.753-.235.755-.352 1.715-.352 2.884v1.655h6.609c.102.669.153 1.355.153 2.056 0 .636-.051 1.254-.153 1.855h-6.61v21.813c-.372.067-.784.119-1.237.152-.456.032-.867.05-1.236.05-.37 0-.79-.018-1.26-.05a11.45 11.45 0 0 1-1.263-.152V22.472h-10.9v21.813c-.37.067-.783.119-1.235.152-.452.033-.865.05-1.235.05-.372 0-.791-.018-1.262-.05a11.51 11.51 0 0 1-1.261-.152V22.472h-.002zm42.839 4.863c0-1.971-.506-3.342-1.515-4.11-1.01-.77-2.471-1.154-4.39-1.154-1.177 0-2.28.091-3.306.275a25.32 25.32 0 0 0-3.002.727c-.639-1.102-.958-2.422-.958-3.96 1.143-.369 2.405-.651 3.783-.853 1.38-.2 2.71-.302 3.987-.302 3.364 0 5.92.76 7.672 2.281 1.747 1.523 2.624 3.954 2.624 7.297V43.63c-1.176.27-2.608.543-4.29.827a30.724 30.724 0 0 1-5.147.427c-1.648 0-3.137-.152-4.464-.453-1.33-.299-2.456-.783-3.383-1.452a6.734 6.734 0 0 1-2.143-2.56c-.506-1.036-.76-2.288-.76-3.76 0-1.436.295-2.698.884-3.784a7.908 7.908 0 0 1 2.399-2.71c1.009-.72 2.169-1.255 3.48-1.604a15.961 15.961 0 0 1 4.14-.527c1.075 0 1.959.024 2.648.074.689.05 1.27.11 1.74.175v-.949zm0 4.867a43.553 43.553 0 0 0-1.917-.202 23.85 23.85 0 0 0-1.969-.1c-2.085 0-3.676.385-4.767 1.155-1.095.77-1.64 1.938-1.64 3.509 0 1.003.182 1.788.554 2.357a3.82 3.82 0 0 0 1.386 1.302c.557.303 1.17.485 1.844.551.671.069 1.31.1 1.917.1.774 0 1.573-.04 2.397-.125a14.72 14.72 0 0 0 2.195-.377v-8.17zm9.183-24.672c.37-.065.783-.117 1.235-.15.454-.032.867-.052 1.236-.052s.783.019 1.237.052c.452.032.865.084 1.236.15v28.982c0 .937.085 1.673.251 2.207.167.535.395.944.682 1.23a1.99 1.99 0 0 0 1.01.55c.386.086.798.127 1.236.127.302 0 .647-.017 1.034-.049.386-.035.717-.085.984-.152.302 1.17.455 2.44.455 3.81-.474.166-1.043.276-1.717.327-.67.051-1.294.077-1.865.077-.978 0-1.885-.12-2.725-.352a5.822 5.822 0 0 1-2.22-1.152c-.64-.536-1.145-1.256-1.515-2.157-.372-.902-.556-2.023-.556-3.36V7.53h.002zm22.505 37.356c-2.017 0-3.784-.344-5.297-1.027-1.515-.685-2.776-1.63-3.784-2.834-1.008-1.204-1.76-2.623-2.247-4.262-.487-1.638-.731-3.41-.731-5.316 0-1.905.244-3.676.731-5.314.488-1.64 1.239-3.06 2.247-4.263 1.008-1.204 2.269-2.157 3.784-2.859 1.513-.702 3.28-1.053 5.297-1.053 2.019 0 3.784.35 5.299 1.053 1.513.702 2.775 1.655 3.784 2.859 1.008 1.203 1.755 2.624 2.245 4.263.486 1.638.731 3.41.731 5.314 0 1.907-.245 3.678-.731 5.316-.489 1.64-1.236 3.06-2.245 4.262-1.01 1.202-2.27 2.15-3.784 2.834-1.515.684-3.28 1.027-5.299 1.027m0-3.96c2.32 0 4.036-.835 5.149-2.506 1.108-1.67 1.665-3.995 1.665-6.97 0-2.973-.556-5.29-1.665-6.942-1.111-1.656-2.827-2.485-5.149-2.485-2.32 0-4.028.829-5.123 2.485-1.093 1.653-1.637 3.969-1.637 6.942 0 2.975.544 5.3 1.637 6.97 1.093 1.671 2.802 2.506 5.123 2.506"/><path fill="#F37920" d="M22.853 29.87c3.761 20.775 18.551 32.393 18.551 32.393s.15 1.817-3.12 3.512c-4.98 2.582-9.194 9.251-9.194 9.251s-4.88-3.354-9.886-12.533C11.347 48.091 17.56 19.85 20.224 9.92c.096-.35.171-.63.258-.944a97.99 97.99 0 0 0-2.992 7.042 113.164 113.164 0 0 0-3.404 10.526C9.8 42.513 10.37 56.233 15.792 67.43c2.995 6.182 7.278 11.206 11.816 13.921 1.682-5.755 11.695-9.468 17.034-10.242.707-.756 3.79-7.895 4.324-9.393-13.404-11.493-21.67-25.922-23.893-41.745-.765-5.47.164-15.053.676-19.456-.924 1.622-6.065 11.851-2.896 29.355"/><path fill="#223982" d="M9.332 33.238c9.014 19.089 28.346 27.486 28.346 27.486s-1.424.713-4.14 3.193c-4.139 3.786-6.482 11.319-6.482 11.319s-5.586-1.973-12.802-9.543C2.94 53.82 1.621 24.931 1.621 14.651c0-.362.006-.653.006-.978A96.629 96.629 0 0 0 .562 21.25 114.227 114.227 0 0 0 0 32.299c0 16.535 4.104 29.634 12.243 39.047 4.493 5.198 9.931 8.937 15.02 10.385.134-5.996 8.842-12.176 13.794-14.306.488-.915 1.613-8.608 1.747-10.192-15.929-7.63-27.651-19.421-33.893-34.13C6.753 18.021 5.168 8.517 4.52 4.135 4.048 5.94 1.737 17.151 9.333 33.237"/></g></svg>