<svg xmlns="http://www.w3.org/2000/svg" xmlns:xlink="http://www.w3.org/1999/xlink" width="409" height="107" viewBox="0 0 409 107">
  <defs>
    <polygon id="group-25-a" points=".1 .5 51.5 .5 51.5 106.999 .1 106.999"/>
    <polygon id="group-25-c" points=".1 .3 45.425 .3 45.425 106.801 .1 106.801"/>
    <polygon id="group-25-e" points="0 .8 69 .8 69 71.7 0 71.7"/>
    <polygon id="group-25-g" points=".5 .3 20.9 .3 20.9 20.8 .5 20.8"/>
  </defs>
  <g fill="none" fill-rule="evenodd" transform="translate(0 -1)">
    <g transform="translate(357 .7)">
      <mask id="group-25-b" fill="#fff">
        <use xlink:href="#group-25-a"/>
      </mask>
      <path fill="#0A0A0B" d="M17.8002,80.3004 L17.8002,81.1994 L17.8002,106.1004 C17.8002,106.6994 17.6992,106.9004 17.1002,106.9004 L0.8002,106.9004 C0.3002,106.9004 0.1002,106.8004 0.1002,106.1994 L0.1002,1.1994 C0.1002,0.5004 0.3002,0.5004 0.9002,0.5004 L17.0002,0.5004 C17.6992,0.5004 17.9002,0.6004 17.9002,1.3004 L17.9002,61.6004 L17.9002,62.4004 C19.3002,61.6004 20.6002,60.8004 21.8002,59.8004 C29.1992,54.0004 33.6002,46.4004 35.1002,37.1994 C35.3002,35.9004 35.3002,35.9004 36.6002,35.9004 L50.6002,35.9004 C51.5002,35.9004 51.5002,35.9004 51.4002,36.8004 C50.6002,45.1004 48.0002,52.6994 43.5002,59.6994 C40.8002,63.9004 37.5002,67.6994 33.6992,70.9994 C33.1992,71.4004 33.3002,71.4994 33.6992,71.9004 C41.6002,78.6994 46.9002,87.1004 49.8002,97.1994 C50.6992,100.1994 51.1992,103.3004 51.5002,106.4994 C51.5002,106.9004 51.4002,106.9994 51.0002,106.9994 L35.6992,106.9994 C35.1002,106.9994 35.1992,106.6004 35.1992,106.3004 C34.6992,102.6994 33.6992,99.1994 32.1002,95.9004 C29.0002,89.4994 24.4002,84.4004 18.3002,80.6994 C18.1002,80.4004 18.0002,80.4004 17.8002,80.3004" mask="url(#group-25-b)"/>
    </g>
    <path fill="#0B0A0B" d="M291.5004,72.0004 L291.5004,37.3004 C291.5004,36.6004 291.6994,36.5004 292.3004,36.5004 L308.5004,36.5004 C309.1004,36.5004 309.3004,36.6004 309.3004,37.3004 C309.1994,38.6004 309.3004,38.6004 310.5004,38.1004 C326.6994,32.3994 344.3004,42.3994 347.6994,59.1994 C348.1004,61.3004 348.3004,63.3994 348.3004,65.5004 L348.3004,106.6994 C348.3004,107.3004 348.1994,107.5004 347.5004,107.5004 L331.1994,107.5004 C330.6004,107.5004 330.5004,107.3004 330.5004,106.8004 L330.5004,65.0004 C330.5004,60.6004 328.3994,57.3004 324.5004,55.3004 C317.6004,51.8994 309.3004,57.1004 309.3004,64.8004 L309.3004,106.6004 C309.3004,107.3004 309.1004,107.3994 308.3994,107.3994 L292.1994,107.3994 C291.6004,107.3994 291.5004,107.1994 291.5004,106.6004 L291.5004,72.0004 Z"/>
    <g transform="translate(184 .7)">
      <mask id="group-25-d" fill="#fff">
        <use xlink:href="#group-25-c"/>
      </mask>
      <path fill="#0A0A0B" d="M31.6996,80.1998 L31.6996,105.9998 C31.6996,106.5998 31.5996,106.8008 30.8996,106.8008 L14.5996,106.8008 C13.9996,106.8008 13.8996,106.5998 13.8996,105.9998 L13.8996,54.3998 C13.8996,53.6998 13.8006,53.5998 13.0996,53.5998 L0.8006,53.5998 C0.3006,53.5998 0.0996,53.4998 0.0996,52.8998 L0.0996,36.3998 C0.0996,35.8998 0.1996,35.7998 0.6996,35.7998 L13.1996,35.7998 C13.8006,35.7998 13.8996,35.5998 13.8996,35.0998 L13.8996,1.0998 C13.8996,0.4998 13.9996,0.2998 14.6996,0.2998 L30.8006,0.2998 C31.5006,0.2998 31.6996,0.3998 31.6996,1.0998 L31.6996,34.8998 C31.6996,35.5998 31.8996,35.6998 32.5006,35.6998 L44.8006,35.6998 C45.3006,35.6998 45.5006,35.7998 45.3996,36.2998 L45.3996,52.7998 C45.3996,53.3998 45.1996,53.4998 44.6996,53.4998 L32.3006,53.4998 C31.6996,53.4998 31.5996,53.6998 31.5996,54.1998 C31.6996,62.8998 31.6996,71.4998 31.6996,80.1998" mask="url(#group-25-d)"/>
    </g>
    <g transform="translate(0 35.7)">
      <mask id="group-25-f" fill="#fff">
        <use xlink:href="#group-25-e"/>
      </mask>
      <path fill="#0A0A0B" d="M68.9999,0.7999 C67.5999,4.6999 66.1999,8.5999 64.7999,12.3999 L43.7999,70.8999 C43.5999,71.4999 43.2999,71.6999 42.5999,71.6999 L26.2999,71.6999 C25.7999,71.6999 25.5999,71.4999 25.3999,71.0999 C16.9999,47.8999 8.5999,24.6999 0.1999,1.4999 C0.0999,1.2999 0.0999,1.0999 -0.0001,0.7999 L0.6999,0.7999 L16.9999,0.7999 C17.5999,0.7999 17.7999,0.9999 17.9999,1.4999 C23.3999,16.3999 28.6999,31.1999 34.0999,46.0999 C34.1999,46.3999 34.2999,46.6999 34.4999,46.9999 C35.1999,44.9999 35.8999,43.0999 36.5999,41.1999 C41.3999,27.8999 46.1999,14.5999 50.8999,1.3999 C50.9999,0.9999 51.0999,0.7999 51.5999,0.7999 L68.4999,0.7999 L68.9999,0.7999 Z" mask="url(#group-25-f)"/>
    </g>
    <path fill="#0B0A0B" d="M238.3002,54.3002 L238.3002,1.9002 C238.3002,1.2002 238.5002,1.0002 239.1992,1.0002 L255.5002,1.0002 C256.0002,1.0002 256.1992,1.1002 256.1992,1.7002 L256.1992,106.8002 C256.1992,107.3002 256.1002,107.5002 255.5002,107.5002 L239.1992,107.5002 C238.6002,107.5002 238.4002,107.4002 238.4002,106.6992 C238.3002,89.1992 238.3002,71.6992 238.3002,54.3002"/>
    <path fill="#F58026" d="M282.6996,72.0004 L282.6996,106.5004 C282.6996,107.6994 282.8006,107.5004 281.8006,107.5004 L265.6996,107.5004 C265.0996,107.5004 264.8996,107.3004 264.8996,106.6994 L264.8996,37.2004 C264.8996,36.6004 265.0006,36.5004 265.5996,36.5004 L282.0006,36.5004 C282.5996,36.5004 282.6996,36.7004 282.6996,37.2004 L282.6996,72.0004 Z"/>
    <path fill="#0B0A0B" d="M95.6,72.0004 L95.6,106.6994 C95.6,107.3004 95.5,107.5004 94.8,107.5004 L78.5,107.5004 C77.9,107.5004 77.8,107.3994 77.8,106.8004 L77.8,37.2004 C77.8,36.7004 77.9,36.5004 78.5,36.5004 L94.9,36.5004 C95.5,36.5004 95.7,36.6004 95.6,37.2004 L95.6,72.0004 Z"/>
    <g transform="translate(76 .7)">
      <mask id="group-25-h" fill="#fff">
        <use xlink:href="#group-25-g"/>
      </mask>
      <path fill="#0B0A0B" d="M10.7001,20.7999 C5.1001,20.7999 0.5001,16.1999 0.5001,10.4999 C0.5001,4.8999 5.1001,0.2999 10.7001,0.2999 C16.4001,0.2999 20.9001,4.8999 20.9001,10.5999 C20.9001,16.1999 16.3001,20.7999 10.7001,20.7999" mask="url(#group-25-h)"/>
    </g>
    <path fill="#F58026" d="M263.5004,11.3002 C263.5004,5.7002 268.0004,1.1002 273.6994,1.1002 C279.3004,1.1002 283.8994,5.6002 284.0004,11.3002 C284.0004,16.9002 279.5004,21.5002 273.8004,21.5002 C268.1994,21.6002 263.6004,16.9002 263.5004,11.3002"/>
    <path fill="#0A0A0B" d="M123.8002,64.8002 C125.6002,60.1992 131.2002,54.3002 139.9002,54.2002 C147.9002,54.2002 153.8002,59.3002 156.1002,64.8002 L123.8002,64.8002 Z M174.6002,64.8002 C170.6002,45.5002 151.7002,33.2002 132.5002,37.2002 C113.5002,41.2002 101.2002,59.9002 105.1002,79.0002 C108.9002,97.6992 127.1002,110.1992 145.9002,106.8002 C157.5002,104.6992 166.0002,98.1992 171.5002,87.8002 C171.8002,87.1992 172.1002,86.6992 172.3002,86.1002 L172.1002,86.1002 L150.9002,86.1002 C150.5002,86.1002 150.3002,86.3002 150.0002,86.4002 C144.3002,90.1992 138.4002,90.6992 132.2002,87.8002 C128.3002,86.0002 125.5002,83.0002 123.7002,79.0002 L124.6002,79.0002 L173.9002,79.0002 C174.5002,79.0002 174.7002,78.9002 174.8002,78.3002 C175.6002,73.9002 175.6002,69.3002 174.6002,64.8002 L174.6002,64.8002 Z"/>
  </g>
</svg>
