<svg xmlns="http://www.w3.org/2000/svg" width="110" height="79"><g fill="none"><path fill="#00C1DE" d="M65.546 6.999L38.696.344l-2.015 7.545.708 1.876-1.231.085-2.571 9.619 6.122-2.55 1.591 3.518z"/><path fill="#003C71" d="M65.546 7l-25.837 9.919 1.591 3.518L65.546 7zm-28.865.89l.708 1.875L65.546 7l-28.865.89zM38.758 25l-.15-.033c-.696-.148-1.514-.053-2.432.281-.974.362-1.58.906-1.803 1.63-1.219 4.37-2.282 7.578-3.147 9.536-1.343 3.033-3.074 5.753-5.144 8.088-.276.305-.657.343-1.24.14-.936-.315-1.624-1.009-2.104-2.134-3.65-8.462-6.29-13.962-7.83-16.348-.618-.975-1.57-1.47-2.83-1.47a6.94 6.94 0 0 0-1.35.143c-.757.164-1.365.715-1.803 1.641-.43.92-.49 1.739-.164 2.447 1.777 3.603 3.537 7.215 5.279 10.835a290.519 290.519 0 0 1 2.777 6.613c2.596 6.15 5.092 9.137 7.622 9.137.205 0 .413-.022.614-.062 1.486-.298 2.998-2.156 4.623-5.686 1.309-2.88 2.606-5.766 3.892-8.657a2917.79 2917.79 0 0 1 3.833-7.744l.033-.093c.043-.18.271-.783 1.289-2.82.655-1.311.972-2.334.972-3.116 0-.813-.282-1.558-.835-2.214l-.102-.113zM5.936 32.777l-.128-.068a4.007 4.007 0 0 0-1.255-.22C2.08 32.487.83 34.503.83 38.476c0 .752.054 3.838.199 4.586v5.688c-.136 1.883-.175 2.222-.185 2.277l.153.033H.83c.002 3.39 1.848 4.1 3.397 4.1.706 0 1.235-.105 1.637-.324.92-.552 1.468-1.406 1.625-2.603v-3.295c0-.817.043-2.037.13-3.62.09-1.585.13-5.03.13-5.934 0-3.521-.59-5.684-1.813-6.609zM1.29 50.673c.015 0 .031.01.047.01-.01.127-.022.254-.036.381H1.29l-.002-.39h.002zM4.282 31.87l.112.01.1-.042c1.855-.768 2.794-2.333 2.794-4.651 0-2.607-1.533-3.153-2.819-3.153-.189 0-.384.008-.59.032-2.214.243-3.38 1.502-3.38 3.643 0 1.065.361 2.012 1.073 2.81a4.006 4.006 0 0 0 2.71 1.35zm41.149-7.545l-.13-.071a3.982 3.982 0 0 0-1.258-.22c-2.469 0-3.721 2.044-3.721 6.08 0 1.028.066 1.805.198 2.371l.002 16.327a68.692 68.692 0 0 1-.183 2.321l.142.032h-.16c.003 3.44 1.847 4.157 3.398 4.157.707 0 1.24-.104 1.635-.33.921-.558 1.468-1.423 1.627-2.637V38.453c0-.844.044-2.081.13-3.683.088-1.636.132-2.892.132-3.73.001-3.581-.591-5.78-1.812-6.716zm-4.65 26.447c.015 0 .03.01.045.01-.008.127-.02.254-.035.381h-.01l-.004-.391h.003zm37.235-25.77l-.153-.034c-.696-.148-1.517-.053-2.432.281-.974.362-1.577.906-1.8 1.63-1.218 4.368-2.283 7.575-3.151 9.536-1.34 3.033-3.07 5.753-5.14 8.088-.277.305-.658.343-1.24.14-.938-.315-1.628-1.009-2.104-2.134-3.653-8.462-6.292-13.964-7.837-16.348-.816-1.3-2.275-1.705-4.177-1.327-.757.164-1.366.715-1.802 1.641-.435.92-.49 1.739-.16 2.447 2.632 5.365 4.407 9.014 5.274 10.835 1.345 3.127 2.28 5.35 2.776 6.613 2.597 6.15 5.09 9.137 7.623 9.137h.001c.204 0 .41-.022.615-.062 1.485-.298 2.995-2.156 4.619-5.686a990.13 990.13 0 0 0 3.893-8.657c1.895-3.84 3.17-6.419 3.833-7.744l.034-.093c.057-.218.325-.886 1.286-2.82.655-1.311.975-2.334.975-3.116 0-.813-.282-1.558-.835-2.214l-.098-.113zm30.339 10.87c-.216-1.47-.326-2.585-.326-3.31v-3.244c0-3.332-.931-5.022-2.766-5.022-2.252 0-3.597 1.26-3.892 3.7v3.307c0 7.457-.042 11.788-.132 12.875-.118 1.562-.904 3.1-2.33 4.585-1.412 1.465-2.902 2.213-4.427 2.213-.327 0-.66-.08-1-.23-2.685-1.145-4.59-2.833-5.67-5.015-.925-1.868-1.394-4.448-1.394-7.676v-5.691c0-2.863-.416-5.433-1.232-7.639l-.049-.13-.112-.083c-.762-.547-1.407-.812-1.974-.812-.862 0-1.684.503-2.45 1.5-.732.963-1.104 1.902-1.104 2.795 0 .493.025 1.204.066 2.104.046.898.066 1.592.066 2.066 0 .953-.022 2.397-.067 4.29a234.514 234.514 0 0 0-.065 4.314c0 3.084.364 5.655 1.08 7.64 1.285 3.5 1.482 3.908 1.587 4.034 2.01 2.79 5.075 4.206 9.103 4.206.569 0 1.44-.045 2.662-.135.714-.05 1.837-.382 3.44-1.032 1.337-.589 2.406-.885 3.174-.885.545 0 1.367.074 2.437.225 1.125.158 1.966.234 2.563.234 2.6 0 3.15-1.433 3.15-2.638V39.31c-.002-.767-.114-1.928-.338-3.44z"/><g fill="#00C1DE"><path d="M75.812 61.946c-.783-.87-1.903-1.529-3.332-1.976-1.827-.563-3.44-.77-4.765-.6-3.025.348-5.508 1.63-7.376 3.796l-.038.052c-.418.653-.696 1.144-.843 1.484a8.606 8.606 0 0 0-1.383 4.679c0 3.239 1.52 5.833 4.521 7.72 1.012.63 2.428 1.087 4.207 1.358.548.08 1.243.117 2.062.117.72 0 1.53-.222 2.408-.682a57.522 57.522 0 0 0 2.036-1.137c1.147-.628 2.213-1.584 3.174-2.848.97-1.267 1.558-2.551 1.752-3.787.032-.188.046-.465.046-.86 0-1.14-.246-2.466-.73-3.941-.485-1.488-1.07-2.623-1.739-3.375zm-2.157 7.788c0 2.114-.664 3.821-2.007 5.115-.009.02-.14.152-.735.237-1.892.278-2.255.308-2.324.308-1.234 0-2.439-.512-3.575-1.53a7.75 7.75 0 0 1-2.257-3.371c-.266-.792-.271-2.27-.02-4.382.085-.653.672-1.396 1.742-2.205 1.092-.826 2.016-1.258 2.744-1.283h.109c1.964 0 3.467.65 4.59 1.981 1.15 1.354 1.733 3.087 1.733 5.13z"/><path d="M59.299 75.283h-1.72c-.213 0-.501.059-.908.197-.428.146-.583.155-.622.155-1.8 0-3.587-.825-5.306-2.444-1.71-1.617-2.577-3.33-2.577-5.1 0-1.79.589-3.207 1.792-4.33 1.218-1.137 2.696-1.684 4.527-1.684.277 0 .718.061 1.317.188.66.138 1.151.203 1.503.203 1.107 0 1.742-.576 1.742-1.587 0-.533-.244-1.27-1.412-1.753a5.31 5.31 0 0 0-2.054-.388c-2.878 0-5.523.89-7.866 2.644-2.665 1.995-4.016 4.573-4.016 7.67 0 2.995 1.221 5.377 3.638 7.087 1.902 1.348 4.462 2.219 7.606 2.593.235.033.476.046.717.046.726 0 1.487-.127 2.259-.382 1.375-.463 2.073-1.206 2.073-2.186-.001-.864-.53-.929-.693-.929zm50.4-1.983c-.029-3.004-.175-5.474-.435-7.313-.63-4.265-2.075-6.675-4.307-7.159a8.515 8.515 0 0 0-1.82-.207c-1.054 0-2.28.2-3.656.608-.41.126-.853.42-1.36.896-.586.592-1.11.888-1.556.888-.528 0-1.237-.222-2.103-.656-2.012-1.026-2.272-1.125-2.348-1.158a7.426 7.426 0 0 0-2.673-.46c-1.185 0-4.158.346-5.438 1.168-.588-.49-1.4-.74-2.425-.74-.39 0-.745.065-1.05.188-.92.358-1.408.847-1.445 1.467-.103 2.247-.103 6.157 0 11.621 0 .34-.013.789-.037 1.355a36.884 36.884 0 0 0-.04 1.427c0 2.709 1.1 3.275 2.02 3.275.495 0 1.066-.165 1.735-.52l.101-.052.061-.087c.24-.352.427-.631.561-.847l.065-.105.003-.12c.027-.93-.04-2.194-.197-3.734-.13-1.911-.195-3.227-.195-3.886 0-1.772.203-3.276.602-4.478.735-2.206.91-2.916.953-3.192 1.016.022 1.873.09 2.022.154l.08.059.09.025c2.104.488 2.457.718 2.51.76.534.466 1.057 1.107 1.554 1.911.485.799.78 1.526.877 2.17.153.958.216 2.82.19 5.535 0 .296-.032.773-.094 1.426-.068.672-.1 1.196-.1 1.553 0 1.264.329 2.253.992 2.942.247.253.611.373 1.104.373 1.714 0 2.191-.767 2.29-1.414.183-1.347.25-3.192.2-5.483-.078-2.712-.078-4.53 0-5.402.07-.98.475-2.127 1.162-3.369.18-.24.351-.41.515-.518a4.84 4.84 0 0 1 1.117-.126c1.369 0 2.621.349 3.715 1.032 1.227.756 1.837 1.723 1.859 2.952.132 6.632.304 10.29.523 11.196.302 1.23 1.6 1.562 3.341.469.777-.478 1.15-1.029 1.112-1.633-.06-.93-.085-1.86-.075-2.791zm-66.76-.155c-.21 0-.432.055-.665.161-.916.423-1.37 1.184-1.37 2.293 0 .688.196 1.303.587 1.855.39.556.914.825 1.564.825.652 0 1.215-.2 1.683-.61.47-.404.704-.944.704-1.6 0-.685-.252-1.341-.761-1.972-.51-.628-1.092-.952-1.742-.952z"/></g></g></svg>